<svg xmlns="http://www.w3.org/2000/svg" width="653" height="672" viewBox="0 0 653 672" version="1.1"><path d="M 220.750 30.750 C 279.187 30.892, 374.812 30.892, 433.250 30.750 C 491.687 30.607, 443.875 30.491, 327 30.491 C 210.125 30.491, 162.312 30.607, 220.750 30.750 M 573.500 300 C 573.500 539.659, 573.427 549.776, 571.648 556.500 C 569.316 565.317, 564.247 576.082, 559.504 582.293 C 554.483 588.866, 543.781 597.486, 536.185 601.075 C 522.788 607.405, 538.255 607.034, 299.575 606.755 L 82 606.500 82 608.685 C 82 609.887, 82.464 612.091, 83.032 613.584 C 83.865 615.776, 83.808 616.125, 82.735 615.399 C 82.004 614.904, 82.552 615.512, 83.953 616.748 C 87.898 620.231, 98.815 625.636, 106 627.665 C 112.214 629.419, 121.949 629.500, 327 629.500 C 528.739 629.500, 541.879 629.395, 547.876 627.739 C 564.700 623.090, 578.510 611.881, 585.915 596.863 C 593.593 581.290, 593.054 602.591, 592.762 326.258 L 592.500 78.500 589.826 71.292 C 585.950 60.846, 579.036 50.500, 575.932 50.500 L 573.500 50.500 573.500 300 M 224.750 69.750 C 280.988 69.893, 373.013 69.893, 429.250 69.750 C 485.488 69.607, 439.475 69.490, 327 69.490 C 214.525 69.490, 168.513 69.607, 224.750 69.750 M 535.500 71.643 C 536.050 72.131, 537.847 73.648, 539.493 75.015 C 542.380 77.412, 542.416 77.417, 540.504 75.157 C 539.414 73.869, 537.617 72.351, 536.511 71.785 C 535.405 71.219, 534.950 71.155, 535.500 71.643 M 543.718 85.165 C 544.323 92.493, 544.830 93.488, 544.906 87.500 C 544.941 84.750, 544.589 81.899, 544.123 81.165 C 543.628 80.384, 543.460 82.044, 543.718 85.165 M 108.286 94.500 C 108.294 97.250, 108.488 98.256, 108.718 96.736 C 108.947 95.216, 108.941 92.966, 108.704 91.736 C 108.467 90.506, 108.279 91.750, 108.286 94.500 M 544.389 120.500 C 544.390 127.650, 544.550 130.444, 544.742 126.708 C 544.935 122.973, 544.934 117.123, 544.739 113.708 C 544.545 110.294, 544.387 113.350, 544.389 120.500 M 491.453 114.250 L 487.500 118.500 491.750 114.547 C 494.087 112.373, 496 110.460, 496 110.297 C 496 109.540, 495.129 110.298, 491.453 114.250 M 438.385 128 C 438.385 134.875, 438.545 137.688, 438.740 134.250 C 438.936 130.813, 438.936 125.188, 438.740 121.750 C 438.545 118.313, 438.385 121.125, 438.385 128 M 425.211 129.717 L 425 140.934 413.750 141.253 L 402.500 141.572 413.781 141.786 C 422.348 141.949, 425.184 141.683, 425.568 140.682 C 425.846 139.958, 425.927 134.670, 425.748 128.932 L 425.422 118.500 425.211 129.717 M 122.252 143.500 C 122.263 145.700, 122.468 146.482, 122.707 145.238 C 122.946 143.994, 122.937 142.194, 122.687 141.238 C 122.437 140.282, 122.241 141.300, 122.252 143.500 M 544.451 175 C 544.451 194.525, 544.585 202.513, 544.748 192.750 C 544.912 182.988, 544.912 167.013, 544.748 157.250 C 544.585 147.488, 544.451 155.475, 544.451 175 M 108.349 150 C 108.349 154.675, 108.522 156.588, 108.732 154.250 C 108.943 151.912, 108.943 148.088, 108.732 145.750 C 108.522 143.412, 108.349 145.325, 108.349 150 M 494.259 148.540 C 495.114 149.454, 491.091 154.174, 490.021 153.513 C 489.643 153.279, 489.333 153.759, 489.333 154.579 C 489.333 155.552, 490.489 154.949, 492.662 152.843 L 495.991 149.617 499.242 152.558 L 502.493 155.500 499.996 152.658 C 498.623 151.095, 496.600 149.347, 495.500 148.773 C 494.400 148.199, 493.842 148.094, 494.259 148.540 M 122.272 154 C 122.272 156.475, 122.467 157.488, 122.706 156.250 C 122.944 155.012, 122.944 152.988, 122.706 151.750 C 122.467 150.512, 122.272 151.525, 122.272 154 M 402.762 154.707 C 404.006 154.946, 405.806 154.937, 406.762 154.687 C 407.718 154.437, 406.700 154.241, 404.500 154.252 C 402.300 154.263, 401.518 154.468, 402.762 154.707 M 122.428 184 C 122.428 196.375, 122.571 201.438, 122.747 195.250 C 122.922 189.063, 122.922 178.938, 122.747 172.750 C 122.571 166.563, 122.428 171.625, 122.428 184 M 108.407 190 C 108.407 199.075, 108.559 202.787, 108.744 198.250 C 108.929 193.713, 108.929 186.287, 108.744 181.750 C 108.559 177.213, 108.407 180.925, 108.407 190 M 465.250 178.716 C 466.762 178.945, 469.238 178.945, 470.750 178.716 C 472.262 178.487, 471.025 178.300, 468 178.300 C 464.975 178.300, 463.738 178.487, 465.250 178.716 M 397.490 181.016 C 397.144 181.575, 396.503 181.811, 396.065 181.540 C 395.626 181.269, 394.530 181.862, 393.629 182.857 C 391.031 185.728, 394.443 185.222, 397.157 182.333 C 398.362 181.050, 399.072 180, 398.733 180 C 398.395 180, 397.835 180.457, 397.490 181.016 M 409.287 191.740 C 412.469 191.939, 417.419 191.937, 420.287 191.736 C 423.154 191.535, 420.550 191.372, 414.500 191.374 C 408.450 191.376, 406.104 191.541, 409.287 191.740 M 469.296 191.744 C 473.583 191.932, 480.333 191.931, 484.296 191.742 C 488.258 191.552, 484.750 191.399, 476.500 191.400 C 468.250 191.401, 465.008 191.556, 469.296 191.744 M 539.405 217.141 C 538.357 218.319, 535.700 220.109, 533.500 221.119 C 531.300 222.130, 530.085 222.966, 530.800 222.978 C 532.879 223.013, 537.298 220.406, 539.924 217.595 C 541.258 216.168, 542.115 215, 541.829 215 C 541.544 215, 540.453 215.964, 539.405 217.141 M 113.496 217.843 C 114.586 219.131, 116.383 220.649, 117.489 221.215 C 119.613 222.303, 119.303 221.967, 114.507 217.985 C 111.620 215.588, 111.584 215.583, 113.496 217.843 M 224.250 223.750 C 280.212 223.893, 371.787 223.893, 427.750 223.750 C 483.712 223.607, 437.925 223.490, 326 223.490 C 214.075 223.490, 168.287 223.607, 224.250 223.750 M 278.500 256.861 C 276.850 257.880, 274.607 259.791, 273.516 261.107 C 271.829 263.140, 271.980 263.095, 274.516 260.805 C 276.157 259.323, 279.075 257.428, 281 256.594 C 282.925 255.760, 283.825 255.062, 283 255.043 C 282.175 255.023, 280.150 255.841, 278.500 256.861 M 388.138 264.250 C 388.803 265.488, 389.673 267.850, 390.071 269.500 C 390.663 271.952, 390.814 272.080, 390.898 270.200 C 390.997 267.977, 388.476 262, 387.439 262 C 387.159 262, 387.474 263.012, 388.138 264.250 M 307.750 268.749 C 319.988 268.908, 340.013 268.908, 352.250 268.749 C 364.488 268.590, 354.475 268.460, 330 268.460 C 305.525 268.460, 295.513 268.590, 307.750 268.749 M 269.239 311.740 L 269 354.979 224.250 355.250 L 179.500 355.521 224.281 355.761 C 259.362 355.948, 269.167 355.729, 269.542 354.750 C 269.806 354.063, 269.900 334.375, 269.750 311 L 269.478 268.500 269.239 311.740 M 283.447 316 C 283.447 333.875, 283.582 341.188, 283.748 332.250 C 283.914 323.313, 283.914 308.688, 283.748 299.750 C 283.582 290.813, 283.447 298.125, 283.447 316 M 390.420 334.500 C 390.419 345.500, 390.565 350.136, 390.745 344.803 C 390.924 339.470, 390.925 330.470, 390.746 324.803 C 390.568 319.136, 390.421 323.500, 390.420 334.500 M 283.286 357.500 C 283.294 360.250, 283.488 361.256, 283.718 359.736 C 283.947 358.216, 283.941 355.966, 283.704 354.736 C 283.467 353.506, 283.279 354.750, 283.286 357.500 M 413.250 355.749 C 425.763 355.908, 446.238 355.908, 458.750 355.749 C 471.263 355.590, 461.025 355.461, 436 355.461 C 410.975 355.461, 400.738 355.590, 413.250 355.749 M 167.462 416 C 167.462 442.125, 167.591 452.813, 167.749 439.750 C 167.907 426.688, 167.907 405.313, 167.749 392.250 C 167.591 379.188, 167.462 389.875, 167.462 416 M 493.286 376.500 C 493.294 379.250, 493.488 380.256, 493.718 378.736 C 493.947 377.216, 493.941 374.966, 493.704 373.736 C 493.467 372.506, 493.279 373.750, 493.286 376.500 M 168.039 465.018 C 167.983 467.211, 172.656 473.748, 175.269 475.130 C 176.794 475.937, 176.469 475.340, 174.239 473.243 C 172.445 471.557, 170.325 468.675, 169.528 466.838 C 168.731 465.002, 168.061 464.183, 168.039 465.018 M 283.320 477 C 283.320 480.575, 283.502 482.038, 283.723 480.250 C 283.945 478.462, 283.945 475.538, 283.723 473.750 C 283.502 471.962, 283.320 473.425, 283.320 477 M 224.739 477.750 L 268.979 478.021 269.250 520.760 L 269.522 563.500 269.761 520.250 L 270 477 225.250 477.239 L 180.500 477.479 224.739 477.750 M 412.818 477.749 C 425.093 477.908, 444.893 477.908, 456.818 477.749 C 468.743 477.589, 458.700 477.459, 434.500 477.459 C 410.300 477.460, 400.543 477.590, 412.818 477.749 M 283.252 523.500 C 283.263 525.700, 283.468 526.482, 283.707 525.238 C 283.946 523.994, 283.937 522.194, 283.687 521.238 C 283.437 520.282, 283.241 521.300, 283.252 523.500 M 283.286 536.500 C 283.294 539.250, 283.488 540.256, 283.718 538.736 C 283.947 537.216, 283.941 534.966, 283.704 533.736 C 283.467 532.506, 283.279 533.750, 283.286 536.500 M 390.116 562.300 C 390.052 563.289, 389.313 565.427, 388.474 567.050 C 387.635 568.672, 387.174 570, 387.449 570 C 388.524 570, 391.096 563.771, 390.676 562.183 C 390.286 560.703, 390.218 560.717, 390.116 562.300 M 275.689 572.750 C 277.494 574.538, 279.540 575.986, 280.235 575.970 C 280.931 575.953, 280.600 575.443, 279.500 574.836 C 278.400 574.229, 276.354 572.780, 274.954 571.616 C 273.553 570.452, 273.884 570.962, 275.689 572.750 M 364.768 577.725 C 366.565 577.947, 369.265 577.943, 370.768 577.715 C 372.271 577.486, 370.800 577.304, 367.500 577.310 C 364.200 577.315, 362.971 577.502, 364.768 577.725" stroke="none" fill="#237cc4" fill-rule="evenodd"/><path d="M 310.500 288.412 C 306.822 290.046, 303.486 293.568, 302.067 297.315 C 301.379 299.129, 301 313.636, 301 338.115 C 301 379.076, 301.027 378.850, 295.576 383.942 L 292.963 386.384 251.946 386.685 C 207.185 387.013, 207.752 386.941, 202.692 392.954 C 199.189 397.117, 198.816 401.568, 199.185 434.751 C 199.388 452.939, 199.144 463.151, 198.500 463.422 C 197.950 463.653, 215.788 463.878, 238.139 463.921 C 275.996 463.995, 278.934 464.126, 281.044 465.834 L 283.309 467.668 283.425 514.084 C 283.490 539.613, 283.897 561.063, 284.330 561.750 C 285.449 563.525, 374.027 563.573, 375.800 561.800 C 376.699 560.901, 377 548.986, 377 514.339 L 377 468.078 379.189 466.039 C 381.328 464.046, 382.456 464, 429.066 464 C 468.136 464, 476.960 463.753, 477.888 462.635 C 478.703 461.652, 478.948 448.433, 478.760 415.385 L 478.500 369.500 429.169 369 C 381.798 368.520, 379.781 368.423, 378.419 366.559 C 377.251 364.962, 377 357.740, 377 325.809 L 377 287 345.250 287.039 C 321.028 287.069, 312.789 287.394, 310.500 288.412 M 181.448 414.500 C 181.447 432.650, 181.582 440.216, 181.748 431.314 C 181.913 422.411, 181.914 407.561, 181.749 398.314 C 181.583 389.066, 181.448 396.350, 181.448 414.500 M 181.272 455 C 181.272 457.475, 181.467 458.488, 181.706 457.250 C 181.944 456.012, 181.944 453.988, 181.706 452.750 C 181.467 451.512, 181.272 452.525, 181.272 455" stroke="none" fill="#ee4750" fill-rule="evenodd"/><path d="M 284.493 271.250 C 284.193 272.488, 283.847 294.040, 283.724 319.145 C 283.511 362.455, 283.403 364.898, 281.595 366.895 C 279.709 368.980, 279.220 369, 231.404 369 C 194.424 369, 182.941 369.286, 182.362 370.223 C 181.057 372.334, 182.002 462.380, 183.338 463.230 C 184.654 464.068, 196.135 464.269, 198.168 463.490 C 199.244 463.078, 199.440 457.555, 199.185 434.740 C 198.816 401.569, 199.189 397.117, 202.692 392.954 C 207.752 386.941, 207.185 387.013, 251.946 386.685 L 292.963 386.384 295.573 383.942 C 297.009 382.599, 298.705 380.600, 299.342 379.500 C 300.143 378.117, 300.654 365.106, 301 337.321 C 301.480 298.712, 301.580 297.035, 303.562 294.383 C 304.696 292.865, 306.865 290.696, 308.383 289.562 C 311.020 287.592, 312.613 287.487, 344.072 287.211 L 377 286.922 377 279.161 C 377 274.458, 376.527 270.927, 375.800 270.200 C 374.902 269.302, 363.315 269, 329.819 269 L 285.038 269 284.493 271.250" stroke="none" fill="#f1969a" fill-rule="evenodd"/><path d="M 521.250 101.788 L 512 102.075 512 155.535 L 512 208.995 326.250 209.250 L 140.500 209.505 334.095 209.753 C 520.927 209.991, 527.748 209.936, 529.354 208.161 C 530.868 206.488, 530.995 201.615, 530.759 153.911 L 530.500 101.500 521.250 101.788 M 405.750 104.743 C 409.738 104.932, 416.262 104.932, 420.250 104.743 C 424.238 104.553, 420.975 104.397, 413 104.397 C 405.025 104.397, 401.762 104.553, 405.750 104.743 M 469.206 104.741 C 472.895 104.932, 479.195 104.934, 483.206 104.743 C 487.218 104.553, 484.200 104.396, 476.500 104.395 C 468.800 104.393, 465.518 104.549, 469.206 104.741 M 428.482 114.018 C 426.344 116.208, 424.885 118, 425.241 118 C 426.365 118, 433.452 111.119, 432.899 110.565 C 432.608 110.275, 430.620 111.828, 428.482 114.018 M 369.385 129 C 369.385 135.875, 369.545 138.688, 369.740 135.250 C 369.936 131.813, 369.936 126.188, 369.740 122.750 C 369.545 119.313, 369.385 122.125, 369.385 129 M 405.750 118.740 C 409.188 118.936, 414.813 118.936, 418.250 118.740 C 421.688 118.545, 418.875 118.385, 412 118.385 C 405.125 118.385, 402.313 118.545, 405.750 118.740 M 482.762 118.707 C 484.006 118.946, 485.806 118.937, 486.762 118.687 C 487.718 118.437, 486.700 118.241, 484.500 118.252 C 482.300 118.263, 481.518 118.468, 482.762 118.707 M 488.360 131 C 488.360 136.225, 488.529 138.363, 488.735 135.750 C 488.941 133.137, 488.941 128.863, 488.735 126.250 C 488.529 123.638, 488.360 125.775, 488.360 131 M 472.287 141.740 C 475.469 141.939, 480.419 141.937, 483.287 141.736 C 486.154 141.535, 483.550 141.372, 477.500 141.374 C 471.450 141.376, 469.104 141.541, 472.287 141.740 M 395.959 150.808 C 397.202 152.627, 398.483 153.851, 398.806 153.527 C 399.129 153.204, 398.113 151.716, 396.547 150.220 L 393.700 147.500 395.959 150.808 M 407.292 178.742 C 411.027 178.935, 416.877 178.934, 420.292 178.739 C 423.706 178.545, 420.650 178.387, 413.500 178.389 C 406.350 178.390, 403.556 178.550, 407.292 178.742 M 475.728 178.722 C 477.503 178.943, 480.653 178.946, 482.728 178.730 C 484.802 178.513, 483.350 178.333, 479.500 178.328 C 475.650 178.324, 473.952 178.501, 475.728 178.722 M 491 180.723 C 491 181.981, 493.858 184.475, 494.530 183.803 C 494.795 183.538, 494.110 182.504, 493.006 181.506 C 491.903 180.507, 491 180.155, 491 180.723" stroke="none" fill="#63b24a" fill-rule="evenodd"/><path d="M 124.200 85.200 C 123.293 86.107, 123 101.004, 123 146.118 C 123 178.963, 123.273 206.548, 123.607 207.418 C 124.094 208.687, 125.875 209, 132.598 209 L 140.983 209 141.241 155.250 L 141.500 101.500 336.250 101.247 L 531 100.995 531 93.697 C 531 89.355, 530.514 85.914, 529.800 85.200 C 528.054 83.454, 125.946 83.454, 124.200 85.200 M 395.462 182.250 L 390.500 187.500 395.750 182.538 C 400.628 177.926, 401.459 177, 400.712 177 C 400.554 177, 398.192 179.363, 395.462 182.250" stroke="none" fill="#d2edb8" fill-rule="evenodd"/><path d="M 226.250 83.750 C 281.663 83.893, 372.338 83.893, 427.750 83.750 C 483.163 83.607, 437.825 83.490, 327 83.490 C 216.175 83.490, 170.838 83.607, 226.250 83.750 M 141.667 101.667 C 141.300 102.033, 141 126.314, 141 155.625 L 141 208.916 133.750 209.321 C 129.762 209.544, 131.450 209.565, 137.500 209.368 C 143.550 209.170, 230.287 209.007, 330.250 209.005 L 512 209 512 155.538 L 512 102.075 521.250 101.745 C 526.337 101.564, 443.163 101.322, 336.417 101.208 C 229.671 101.093, 142.033 101.300, 141.667 101.667 M 395.732 106.536 C 393.679 107.931, 392 109.679, 392 110.420 C 392 111.161, 393.840 113.430, 396.089 115.461 L 400.178 119.155 412.839 118.828 L 425.500 118.500 425.500 130 L 425.500 141.500 412.486 141.199 L 399.472 140.898 396.517 143.983 C 393.953 146.658, 393.726 147.331, 394.803 149.056 C 395.956 150.903, 395.896 150.954, 393.959 149.773 C 392.119 148.650, 391.587 148.830, 389.437 151.306 C 387.113 153.981, 387 154.738, 387 167.622 C 387 175.052, 387.458 181.987, 388.018 183.034 C 388.578 184.080, 391.118 186.525, 393.662 188.468 L 398.288 192 413.067 192 L 427.846 192 430.899 188.947 C 434.409 185.437, 433.987 183.900, 428.476 180.124 C 425.443 178.046, 424.291 177.905, 412.637 178.191 L 400.069 178.500 400.215 167.264 C 400.296 161.085, 400.056 155.722, 399.681 155.348 C 399.307 154.973, 399 154.202, 399 153.633 C 399 153.015, 399.482 153.082, 400.200 153.800 C 401.004 154.604, 405.375 154.990, 413.450 154.971 C 425.468 154.941, 425.509 154.933, 428.858 151.888 L 432.216 148.835 429.358 145.668 L 426.500 142.500 429.840 145.500 L 433.180 148.500 436.090 145.038 C 438.980 141.599, 439 141.487, 439 128.423 C 439 116.615, 438.787 114.999, 436.920 112.625 C 435.776 111.171, 434.426 110.237, 433.920 110.549 C 433.414 110.862, 432.997 110.529, 432.993 109.809 C 432.989 109.089, 431.499 107.487, 429.681 106.250 C 426.658 104.192, 425.229 104, 412.920 104 C 400.164 104, 399.270 104.132, 395.732 106.536 M 460.577 105.940 C 455.558 109.249, 455.330 110.796, 459.281 114.748 L 462.793 118.260 475.146 118.519 L 487.500 118.779 491.750 114.681 C 494.087 112.428, 495.997 110.115, 495.993 109.542 C 495.989 108.969, 494.499 107.487, 492.681 106.250 C 489.673 104.202, 488.216 104.001, 476.438 104.007 C 465.349 104.012, 463.082 104.288, 460.577 105.940 M 359.263 113.250 C 356.135 116.499, 356.134 116.505, 355.897 128.864 L 355.660 141.229 358.945 144.588 C 362.686 148.415, 364.355 148.119, 368.012 142.984 C 369.986 140.211, 370.135 138.946, 369.831 127.559 C 369.524 116.040, 369.327 114.971, 367.076 112.578 C 363.945 109.249, 363.040 109.327, 359.263 113.250 M 492.947 114.553 L 488.500 119.083 488.500 130.292 L 488.500 141.500 476.999 141.195 L 465.499 140.890 462.102 144.395 C 458.786 147.816, 458.745 147.961, 460.375 150.450 C 461.294 151.853, 462.512 153, 463.082 153 C 463.652 153, 463.870 153.401, 463.568 153.890 C 463.259 154.389, 468.367 154.850, 475.182 154.938 C 481.872 155.025, 487.736 155.337, 488.213 155.631 C 488.689 155.926, 488.956 160.794, 488.805 166.449 C 488.599 174.179, 488.887 177.198, 489.967 178.615 C 491.126 180.135, 491.132 180.258, 490.002 179.250 C 489.032 178.385, 484.566 178, 475.503 178 L 462.406 178 458.546 181.953 L 454.687 185.905 457.949 188.953 L 461.212 192 475.971 192 C 491.515 192, 490.419 192.246, 496.927 187.304 C 497.162 187.125, 496.487 186.323, 495.427 185.521 C 494.367 184.720, 494.036 184.049, 494.691 184.032 C 495.346 184.014, 496.181 184.484, 496.546 185.075 C 496.972 185.763, 498.073 185.340, 499.605 183.901 C 501.904 181.741, 502 181.107, 502 168.013 L 502 154.374 498.995 151.495 L 495.991 148.617 492.245 152.058 L 488.500 155.500 491.740 151.962 L 494.980 148.425 492.740 146 C 490.837 143.939, 490.813 143.832, 492.579 145.287 C 495.382 147.597, 497.235 147.443, 499.826 144.686 C 501.845 142.537, 502 141.369, 502 128.360 C 502 115.028, 501.888 114.244, 499.697 112.185 L 497.395 110.022 492.947 114.553 M 359.102 151.905 L 356 154.802 356 167.705 L 356 180.608 359.495 183.995 L 362.991 187.383 365.995 184.505 L 369 181.626 369 167.987 C 369 155.110, 368.874 154.236, 366.750 152.323 C 362.988 148.937, 362.319 148.900, 359.102 151.905" stroke="none" fill="#a3d46e" fill-rule="evenodd"/><path d="M 106 20.034 C 104.625 20.489, 101.475 21.423, 99 22.111 C 84.920 26.026, 69.964 37.290, 60.949 50.769 C 58.227 54.838, 56 58.602, 56 59.133 C 56 59.665, 55.249 61.539, 54.331 63.300 C 50.570 70.514, 48.678 85.161, 48.753 106.500 C 48.785 115.850, 48.860 129.125, 48.919 136 C 49.076 154.258, 49.267 215.023, 49.201 225.500 C 49.169 230.450, 49.204 264.200, 49.277 300.500 C 49.530 425.233, 49.499 463.616, 49.103 515.500 C 48.724 565.160, 49.317 582.252, 51.719 591 C 54.696 601.837, 60.969 611.707, 71.174 621.608 C 83.542 633.607, 95.683 639.459, 112 641.287 C 124.067 642.638, 536.321 642.631, 545.500 641.279 C 575.192 636.906, 599.111 613.328, 604.622 583 C 605.901 575.961, 605.575 81.533, 604.287 75.500 C 601.356 61.767, 595.895 51.871, 585.103 40.735 C 574.819 30.124, 564.812 23.962, 552.500 20.661 C 547.654 19.361, 109.895 18.747, 106 20.034 M 110.347 31.095 C 88.335 34.772, 68.297 53.169, 62.475 75.045 C 60.279 83.298, 60.289 575.735, 62.485 584 C 68.079 605.045, 84.599 621.623, 106 627.665 C 112.214 629.419, 121.949 629.500, 327 629.500 C 528.739 629.500, 541.879 629.395, 547.876 627.739 C 564.700 623.090, 578.510 611.881, 585.915 596.863 C 593.593 581.290, 593.054 602.591, 592.762 326.258 L 592.500 78.500 589.867 71.411 C 584.056 55.763, 573.225 43.314, 559.542 36.553 C 545.467 29.599, 559.558 29.987, 326.162 30.117 C 210.298 30.181, 113.181 30.621, 110.347 31.095 M 119.450 71.403 C 115.456 73.148, 111.335 78.133, 110.044 82.781 C 109.385 85.155, 109.017 108.555, 109.028 147.500 C 109.046 216.111, 108.793 213.689, 116.563 219.616 L 120.344 222.500 323.922 222.794 C 466.407 222.999, 528.612 222.766, 531.205 222.017 C 535.595 220.749, 540.520 216.830, 542.476 213.047 C 543.629 210.816, 543.922 199.042, 544.122 146.916 C 544.393 76.096, 544.646 78.883, 537.434 73.382 L 533.656 70.500 328.078 70.285 C 158.691 70.108, 121.963 70.305, 119.450 71.403 M 124.201 84.258 C 123.518 85.081, 122.929 106.192, 122.499 145.312 C 121.906 199.190, 121.999 205.350, 123.443 207.554 L 125.046 210 326.452 210 C 508.214 210, 528.010 209.847, 529.429 208.429 C 530.823 207.035, 531 200.003, 531 146.129 C 531 100.229, 530.707 85.107, 529.800 84.200 C 528.002 82.402, 125.694 82.459, 124.201 84.258 M 395.635 107.073 C 392.107 109.848, 392.316 111.954, 396.447 115.250 C 399.787 117.915, 400.273 118, 412.238 118 L 424.584 118 428.875 113.627 L 433.166 109.255 430.179 107.127 C 427.463 105.193, 425.877 105, 412.730 105 C 399.615 105, 398.025 105.193, 395.635 107.073 M 459.635 107.073 C 456.107 109.848, 456.316 111.954, 460.447 115.250 C 463.769 117.901, 464.318 118, 475.738 118 L 487.584 118 491.875 113.627 L 496.166 109.255 493.179 107.127 C 490.475 105.202, 488.867 105, 476.230 105 C 463.621 105, 462.015 105.201, 459.635 107.073 M 359.656 113.840 L 356 117.584 356 129.703 L 356 141.822 359.077 144.411 C 360.769 145.835, 362.529 147, 362.988 147 C 363.447 147, 364.987 145.615, 366.411 143.923 C 368.894 140.973, 369 140.335, 369 128.358 C 369 115.638, 368.365 112.801, 365.133 111.071 C 363.669 110.288, 362.594 110.831, 359.656 113.840 M 429.703 114.792 L 426 118.584 426 130.203 L 426 141.822 429.077 144.411 C 432.850 147.586, 433.095 147.592, 435.928 144.577 C 438.086 142.279, 438.196 141.440, 438.057 128.355 C 437.938 117.223, 437.598 114.213, 436.300 112.778 C 434.133 110.385, 433.953 110.440, 429.703 114.792 M 492.703 114.792 L 489 118.584 489 129.596 L 489 140.608 492.495 143.995 L 495.991 147.383 499.090 144.442 L 502.189 141.500 501.818 128.326 C 501.504 117.170, 501.159 114.833, 499.569 113.076 C 498.535 111.934, 497.401 111, 497.048 111 C 496.695 111, 494.740 112.706, 492.703 114.792 M 396.950 144.551 L 393.994 147.602 397.270 150.777 C 400.481 153.889, 400.785 153.965, 412.642 154.609 L 424.739 155.266 428.428 151.883 L 432.116 148.500 428.808 145.338 L 425.500 142.176 412.703 141.838 L 399.907 141.500 396.950 144.551 M 462.452 144.646 C 459.374 147.968, 459.381 149.070, 462.501 152.001 C 464.735 154.100, 466.174 154.399, 475.989 154.803 C 486.689 155.244, 487.067 155.186, 490.488 152.577 C 494.707 149.359, 494.803 148.448, 491.313 144.805 C 488.665 142.040, 488.455 142, 476.765 142 C 465.224 142, 464.838 142.071, 462.452 144.646 M 389.687 151.805 C 387.041 154.566, 387 154.818, 387 168.150 C 387 180.444, 387.185 181.858, 389.010 183.509 C 390.962 185.276, 391.101 185.260, 393.760 182.952 C 400 177.537, 400 177.537, 400 166.085 L 400 155.392 396.702 152.196 C 394.889 150.438, 393.173 149, 392.889 149 C 392.606 149, 391.165 150.262, 389.687 151.805 M 359.077 152.589 L 356 155.178 356 167.245 C 356 178.639, 356.142 179.497, 358.551 182.656 C 361.707 186.793, 363.114 186.841, 366.411 182.923 C 368.888 179.980, 369 179.315, 369 167.610 C 369 155.509, 368.969 155.345, 366.195 152.687 C 364.653 151.209, 363.112 150, 362.772 150 C 362.432 150, 360.769 151.165, 359.077 152.589 M 492.196 153.298 C 489.014 156.581, 489 156.640, 489 167.095 L 489 177.594 492.792 181.297 C 497.263 185.663, 498.403 185.841, 500.585 182.511 C 501.937 180.447, 502.144 177.890, 501.795 167.525 C 501.410 156.071, 501.177 154.817, 499.013 152.514 C 497.714 151.131, 496.368 150, 496.022 150 C 495.676 150, 493.954 151.484, 492.196 153.298 M 396.750 182.541 C 394.688 184.458, 393 186.386, 393 186.825 C 393 187.265, 394.238 188.519, 395.750 189.613 C 398.258 191.428, 399.818 191.575, 413.458 191.280 C 427.151 190.985, 428.611 190.775, 430.708 188.804 C 433.797 185.903, 433.606 184.699, 429.567 181.619 C 426.270 179.104, 425.622 179.001, 413.317 179.027 L 400.500 179.054 396.750 182.541 M 459.250 181.863 C 455.383 185.174, 455.276 185.971, 458.314 188.826 C 460.486 190.866, 461.589 191, 476.204 191 C 490.107 191, 492.032 190.793, 494.139 189.070 L 496.500 187.141 492.547 183.070 L 488.594 179 475.547 179.041 C 462.749 179.081, 462.438 179.134, 459.250 181.863 M 281.007 256.573 C 277.162 258.263, 273.446 261.413, 271.658 264.500 C 270.850 265.896, 270.349 279.936, 270 311 L 269.500 355.500 223.822 356 C 179.654 356.483, 178.053 356.568, 175.384 358.562 C 173.866 359.696, 171.696 361.866, 170.562 363.385 C 168.544 366.088, 168.500 367.209, 168.500 415.896 L 168.500 465.646 171.161 469.667 C 176.090 477.116, 175.235 477, 225.401 477 L 270 477 270 519.878 C 270 566.951, 270.044 567.335, 276.008 572.354 C 281.485 576.962, 283.607 577.130, 332 576.805 C 375.848 576.511, 377.645 576.424, 381.500 574.416 C 384.050 573.088, 386.406 570.732, 388 567.916 L 390.500 563.500 390.790 520.250 L 391.080 477 435.072 477 C 469.965 477, 479.739 476.718, 482.329 475.636 C 486.491 473.897, 490.632 468.986, 491.956 464.219 C 492.596 461.913, 492.991 443.201, 492.994 414.962 C 493 369.718, 492.985 369.395, 490.750 364.970 C 489.512 362.520, 486.971 359.500, 485.102 358.258 L 481.704 356 436.371 356 L 391.038 356 390.481 353.750 C 390.175 352.512, 390.053 332.825, 390.212 310 L 390.500 268.500 388 264.051 C 386.625 261.604, 383.925 258.679, 382 257.551 C 378.622 255.571, 376.866 255.492, 331.500 255.269 C 291.089 255.071, 284.010 255.254, 281.007 256.573 M 284.557 270.223 C 283.202 272.156, 283 278.440, 283 318.548 L 283 364.651 280.686 366.826 C 278.376 368.995, 278.264 369, 230.886 369 C 195.286 369, 183.100 369.300, 182.200 370.200 C 180.473 371.927, 180.473 461.073, 182.200 462.800 C 183.100 463.700, 195.331 464, 231.089 464 C 275.047 464, 278.941 464.137, 280.861 465.750 C 282.911 467.473, 282.946 468.218, 283.106 513.500 C 283.196 538.800, 283.674 560.288, 284.170 561.250 C 285.007 562.877, 288.212 563, 329.835 563 C 363.319 563, 374.902 562.698, 375.800 561.800 C 376.699 560.901, 377 548.986, 377 514.339 L 377 468.078 379.189 466.039 C 381.328 464.046, 382.456 464, 429.066 464 C 468.136 464, 476.960 463.753, 477.888 462.635 C 478.703 461.652, 478.948 448.433, 478.760 415.385 L 478.500 369.500 429.293 369 C 381.559 368.515, 380.040 368.440, 378.574 366.500 C 377.277 364.783, 377.059 357.819, 377.032 317.285 C 377.001 271.646, 376.935 270.036, 375.066 269.035 C 373.817 268.367, 357.702 268, 329.622 268 L 286.113 268 284.557 270.223" stroke="none" fill="#0c0e31" fill-rule="evenodd"/><path d="M 106.916 32.522 C 85.764 37.658, 68.785 54.232, 62.887 75.500 C 60.838 82.887, 60.812 574.714, 62.859 583 C 65.198 592.462, 70.646 602.575, 77.015 609.277 C 82.833 615.399, 82.913 615.443, 81.949 612 C 79.443 603.046, 79.028 564.615, 79.014 340.338 C 79.002 140.654, 79.215 104.050, 80.428 97.710 C 84.529 76.277, 100.221 58.786, 122 51.372 C 127.311 49.564, 135.229 49.500, 351.846 49.500 L 576.192 49.500 571.267 44.972 C 568.559 42.481, 563.429 39.009, 559.868 37.256 C 546.345 30.598, 562.417 31.023, 326.500 31.098 C 149.989 31.155, 111.522 31.404, 106.916 32.522" stroke="none" fill="#acd2ed" fill-rule="evenodd"/><path d="" stroke="none" fill="#c89d82" fill-rule="evenodd"/><path d="M 573.823 47.142 C 575.553 49.110, 575.809 49.920, 574.823 50.313 C 573.945 50.664, 574.089 50.869, 575.250 50.921 C 577.747 51.034, 577.418 49.717, 574.250 46.924 L 571.500 44.500 573.823 47.142 M 127.500 50.011 C 109.793 53.614, 93.039 66.683, 85.345 82.895 C 78.486 97.348, 78.881 79.553, 79.337 353.111 C 79.601 510.846, 80.109 602.312, 80.741 605.500 C 81.287 608.250, 81.793 609.600, 81.866 608.500 C 82 606.506, 82.621 606.501, 299.575 606.755 C 538.255 607.034, 522.788 607.405, 536.185 601.075 C 543.781 597.486, 554.483 588.866, 559.504 582.293 C 564.247 576.082, 569.316 565.317, 571.648 556.500 C 573.427 549.776, 573.500 539.668, 573.500 300.333 C 573.500 163.292, 573.125 50.792, 572.667 50.333 C 571.588 49.254, 132.780 48.937, 127.500 50.011 M 119.384 70.913 C 113.468 73.600, 110.016 78.597, 109.184 85.681 C 108.808 88.882, 108.500 118.348, 108.500 151.162 L 108.500 210.823 111.513 215.162 C 113.282 217.708, 116.373 220.433, 118.994 221.759 L 123.462 224.019 327.481 223.759 C 529.464 223.503, 531.534 223.480, 534.894 221.500 C 536.761 220.400, 539.686 217.771, 541.394 215.658 L 544.500 211.815 544.771 147.410 C 545.032 85.637, 544.965 82.851, 543.128 79.252 C 540.768 74.628, 538.506 72.527, 533.746 70.538 C 530.473 69.171, 507.488 69.002, 326.782 69.022 C 130.402 69.043, 123.360 69.107, 119.384 70.913 M 286 254.780 C 278.581 255.611, 273.828 258.967, 270.880 265.459 C 269.192 269.175, 269.042 272.937, 269.022 312.221 L 269 354.941 223.671 355.221 L 178.342 355.500 174.552 358.392 C 172.468 359.982, 169.899 363.234, 168.844 365.619 C 167.027 369.728, 166.941 372.461, 167.213 417.802 L 167.500 465.649 170.316 469.903 C 175.677 478.001, 175.351 477.953, 225.250 477.978 L 269 478 269.022 520.250 C 269.042 559.187, 269.189 562.814, 270.890 566.500 C 273.013 571.100, 276.309 574.416, 280.239 575.904 C 281.958 576.556, 300.609 577.027, 330.310 577.171 L 377.643 577.399 382.082 574.798 C 384.692 573.268, 387.444 570.554, 388.761 568.212 C 390.984 564.257, 391 563.910, 391 521.114 L 391 478 433.750 477.994 C 460.071 477.991, 477.929 477.592, 480.219 476.956 C 484.965 475.638, 489.306 471.983, 491.423 467.521 C 492.895 464.420, 493.096 458.609, 493.183 416.739 C 493.237 390.736, 492.933 368.344, 492.509 366.980 C 491.202 362.779, 488.010 359.046, 483.956 356.977 C 480.266 355.095, 477.936 355, 435.540 355 L 391 355 390.995 311.250 C 390.990 267.671, 390.981 267.486, 388.745 263.826 C 387.510 261.805, 385.162 259.105, 383.527 257.826 C 380.631 255.560, 379.947 255.494, 357.027 255.249 C 344.087 255.110, 323.375 254.885, 311 254.749 C 298.625 254.612, 287.375 254.626, 286 254.780" stroke="none" fill="#3f9dd3" fill-rule="evenodd"/></svg>